PathFileType	4	(X/Y/Z)	C:\Users\°ÂÌØÂü\Desktop\20201223\Trimmed_Trimmed_Trimmed_Trimmed_bx_n_0_501.trc
DataRate	CameraRate	NumFrames	NumMarkers	Units	OrigDataRate	OrigDataStartFrame	OrigNumFrames
50.00	50.00	       7	43	mm	50.00	301	       802
Frame#	Time	Top.Head			R.Acromium			L.Acromium			Sternum			R.ASIS			L.ASIS			V.Sacral			R.Thigh.Upper			R.Thigh.Front			R.Thigh.Rear			R.Knee.Lat			R.Knee.Med			R.Shank.Upper			R.Shank.Front			R.Shank.Rear			R.Ankle.Lat			R.Midfoot.Lat			R.Toe.Lat			R.Toe.Tip			R.Toe.Med			R.Ankle.Med			R.Midfoot.Sup			R.Heel			L.Thigh.Upper			L.Thigh.Front			L.Thigh.Rear			L.Knee.Lat			L.Knee.Med			L.Shank.Upper			L.Shank.Front			L.Shank.Rear			L.Ankle.Lat			L.Midfoot.Lat			L.Toe.Lat			L.Toe.Tip			L.Toe.Med			L.Ankle.Med			L.Midfoot.Sup			L.Heel			origin1 front left			origin2 front right			origin 3 back right			origin 4 back leftt			
		X1	Y1	Z1	X2	Y2	Z2	X3	Y3	Z3	X4	Y4	Z4	X5	Y5	Z5	X6	Y6	Z6	X7	Y7	Z7	X8	Y8	Z8	X9	Y9	Z9	X10	Y10	Z10	X11	Y11	Z11	X12	Y12	Z12	X13	Y13	Z13	X14	Y14	Z14	X15	Y15	Z15	X16	Y16	Z16	X17	Y17	Z17	X18	Y18	Z18	X19	Y19	Z19	X20	Y20	Z20	X21	Y21	Z21	X22	Y22	Z22	X23	Y23	Z23	X24	Y24	Z24	X25	Y25	Z25	X26	Y26	Z26	X27	Y27	Z27	X28	Y28	Z28	X29	Y29	Z29	X30	Y30	Z30	X31	Y31	Z31	X32	Y32	Z32	X33	Y33	Z33	X34	Y34	Z34	X35	Y35	Z35	X36	Y36	Z36	X37	Y37	Z37	X38	Y38	Z38	X39	Y39	Z39	X40	Y40	Z40	X41	Y41	Z41	X42	Y42	Z42	X43	Y43	Z43	

301	6.000	-687.99536	264.21490	1826.52527	-619.81403	78.98930	1533.04285	-625.47272	444.74799	1523.67371	-520.16187	259.98199	1359.91321	-530.90277	133.04276	1039.89307	-502.69815	354.77902	1038.00366	-719.38763	256.44693	1062.04346	-618.13354	81.97928	835.32214	-528.98132	129.82193	800.14966	-636.59296	98.05199	720.10706	-658.70526	118.16333	601.12122	-633.18854	223.29681	557.67072	-687.04272	117.95084	539.57056	-608.74762	166.61292	524.04993	-696.95905	110.78459	488.22348	-690.33978	139.90100	213.50508	-616.46399	78.57409	167.38341	-571.16400	56.64532	164.25526	-494.35638	96.79645	160.55510	-536.09625	148.76152	162.45052	-640.24255	216.67314	220.20241	-598.01306	189.17532	169.92267	-725.69659	205.65718	169.00604	-597.77448	441.83151	856.96985	-518.38593	388.44931	816.00446	-625.16962	432.15851	741.47528	-647.24377	414.76343	605.17291	-631.88342	297.12402	570.44745	-664.69012	418.40033	559.09161	-606.91156	363.94031	533.59265	-717.71912	422.61914	496.36044	-675.66388	420.40482	215.67697	-579.20074	465.20059	165.28691	-541.19653	475.68747	159.05063	-484.53992	420.62189	167.21400	-524.70288	381.97922	176.45621	-646.61548	326.30750	208.92603	-596.57739	345.53479	169.94260	-735.57770	353.80774	161.99132	-443.75131	448.41599	146.63390	-450.45190	74.96946	143.35854	-805.99640	82.00965	141.42169	-800.04034	456.35178	144.70996	
302	6.020	-687.67767	264.28571	1826.60840	-619.69690	78.99387	1533.08704	-625.48865	444.77533	1523.70471	-520.24268	260.06592	1359.86951	-531.16113	133.05923	1039.88220	-503.01941	354.69809	1038.03271	-719.68353	256.41904	1062.12244	-618.38013	81.96345	835.33911	-529.19434	129.83340	800.18042	-636.79633	98.11497	720.10382	-658.80072	118.15392	601.13141	-633.31232	223.30376	557.68677	-687.17511	117.90945	539.56427	-608.84210	166.56052	524.05090	-697.03326	110.79048	488.21368	-690.35486	139.89639	213.47627	-616.43268	78.57845	167.40567	-571.15918	56.64153	164.25400	-494.37024	96.80449	160.56027	-536.09247	148.74988	162.47404	-640.24353	216.64995	220.21391	-598.01654	189.17293	169.91960	-725.69543	205.64063	168.99507	-598.07556	441.82782	857.01007	-518.66620	388.48553	816.04626	-625.40399	432.16205	741.48871	-647.32635	414.74847	605.17493	-632.02020	297.24329	570.42889	-664.86035	418.42859	559.12262	-607.03967	363.86389	533.60889	-717.80859	422.65695	496.32263	-675.69086	420.40646	215.67747	-579.20258	465.19949	165.29187	-541.20001	475.68771	159.04428	-484.50110	420.62494	167.28285	-524.71936	381.99234	176.48544	-646.60736	326.31122	208.93434	-596.57501	345.55499	169.96912	-735.56659	353.79446	161.97539	-443.75067	448.41537	146.63364	-450.44424	74.96433	143.36757	-805.99170	82.00926	141.42459	-800.02423	456.35901	144.71083	
303	6.040	-687.36377	264.34705	1826.68799	-619.58386	79.00100	1533.12451	-625.49512	444.79782	1523.73608	-520.33148	260.15393	1359.82043	-531.42468	133.07088	1039.87732	-503.34561	354.62006	1038.06348	-719.98901	256.39691	1062.19312	-618.61755	81.96011	835.35083	-529.41138	129.84325	800.21100	-637.00812	98.18298	720.11273	-658.90112	118.15125	601.14185	-633.45087	223.31859	557.70892	-687.32166	117.87846	539.55322	-608.94220	166.50677	524.05627	-697.09943	110.79615	488.21240	-690.36633	139.88644	213.45853	-616.40741	78.58276	167.42368	-571.15491	56.63826	164.25317	-494.37897	96.81274	160.56918	-536.08716	148.73752	162.49814	-640.24573	216.63106	220.22443	-598.02740	189.16214	169.91048	-725.69556	205.62610	168.98398	-598.37616	441.81686	857.04712	-518.94354	388.53357	816.08374	-625.63202	432.16211	741.50000	-647.42108	414.75470	605.19525	-632.16992	297.37411	570.40485	-665.03827	418.43683	559.13611	-607.16260	363.78589	533.63177	-717.90637	422.69470	496.28198	-675.72119	420.40732	215.67650	-579.20374	465.19913	165.29712	-541.20428	475.68945	159.03557	-484.45465	420.62793	167.36534	-524.73438	382.00937	176.51372	-646.59991	326.31448	208.94221	-596.56787	345.57266	169.99394	-735.55817	353.77881	161.96310	-443.75174	448.41605	146.62747	-450.43631	74.96175	143.37366	-805.98962	82.01082	141.42673	-800.00757	456.36725	144.71230	
304	6.060	-687.05554	264.40195	1826.76538	-619.47675	79.01284	1533.15479	-625.49219	444.81583	1523.76685	-520.42719	260.24365	1359.76624	-531.68634	133.07730	1039.88037	-503.68170	354.55554	1038.09399	-720.29791	256.38022	1062.25354	-618.84259	81.96848	835.35681	-529.62939	129.85210	800.24048	-637.22577	98.24921	720.13647	-659.00922	118.15513	601.15387	-633.60541	223.34021	557.73547	-687.47815	117.85757	539.53906	-609.04578	166.45535	524.06708	-697.15894	110.80278	488.21875	-690.37360	139.87178	213.45352	-616.39081	78.58650	167.43523	-571.15149	56.63636	164.25348	-494.38214	96.82069	160.58162	-536.08136	148.72525	162.52074	-640.24963	216.61728	220.23315	-598.04590	189.14403	169.89568	-725.69641	205.61481	168.97357	-598.67291	441.80115	857.07788	-519.21478	388.59155	816.11566	-625.85309	432.15915	741.50812	-647.53503	414.78296	605.23328	-632.33197	297.51581	570.37543	-665.21912	418.42258	559.12982	-607.27985	363.71594	533.66180	-718.01270	422.73047	496.23837	-675.75488	420.40717	215.67331	-579.20392	465.20093	165.30183	-541.20929	475.69266	159.02571	-484.40350	420.63107	167.45624	-524.74731	382.02979	176.53964	-646.59406	326.31827	208.94881	-596.55688	345.58624	170.01407	-735.55383	353.76193	161.95490	-443.75531	448.41748	146.61633	-450.42822	74.96162	143.37668	-805.99115	82.01474	141.42775	-799.99213	456.37640	144.71458	
305	6.080	-686.75323	264.45374	1826.84180	-619.37579	79.03087	1533.17786	-625.48047	444.83029	1523.79700	-520.52881	260.33298	1359.70667	-531.94043	133.08009	1039.89294	-504.03278	354.51352	1038.12317	-720.60486	256.36841	1062.30200	-619.05432	81.98598	835.35706	-529.84631	129.86081	800.26807	-637.44556	98.30786	720.17548	-659.12701	118.16437	601.16882	-633.77386	223.36690	557.76459	-687.63940	117.84570	539.52393	-609.14996	166.40977	524.08386	-697.21362	110.81120	488.23114	-690.37671	139.85406	213.46094	-616.38348	78.58925	167.43971	-571.14868	56.63671	164.25560	-494.38019	96.82797	160.59689	-536.07635	148.71376	162.54010	-640.25568	216.60884	220.23936	-598.06995	189.12169	169.87727	-725.69751	205.60732	168.96457	-598.96307	441.78448	857.10059	-519.47839	388.65665	816.14209	-626.06781	432.15408	741.51221	-647.67310	414.83267	605.28632	-632.50580	297.66772	570.34070	-665.39764	418.38599	559.10370	-607.39203	363.66306	533.69788	-718.12677	422.76276	496.19180	-675.79187	420.40613	215.66721	-579.20258	465.20596	165.30515	-541.21497	475.69702	159.01617	-484.35141	420.63449	167.54897	-524.75818	382.05249	176.56238	-646.59003	326.32349	208.95361	-596.54346	345.59467	170.02742	-735.55444	353.74493	161.95052	-443.76169	448.41895	146.60168	-450.42023	74.96364	143.37660	-805.99725	82.02110	141.42776	-799.97943	456.38626	144.71785	
306	6.100	-686.45551	264.50488	1826.91846	-619.28009	79.05566	1533.19495	-625.46112	444.84250	1523.82629	-520.63525	260.42044	1359.64185	-532.18335	133.08289	1039.91479	-504.40228	354.50021	1038.14978	-720.90558	256.36078	1062.33838	-619.25372	82.00861	835.35236	-530.06116	129.87015	800.29321	-637.66321	98.35497	720.22754	-659.25537	118.17717	601.18744	-633.95111	223.39658	557.79425	-687.79987	117.84143	539.50958	-609.25159	166.37312	524.10693	-697.26550	110.82143	488.24777	-690.37665	139.83568	213.47847	-616.38440	78.59084	167.43805	-571.14612	56.64002	164.25999	-494.37433	96.83432	160.61391	-536.07312	148.70363	162.55507	-640.26398	216.60529	220.24254	-598.09558	189.09976	169.85869	-725.69849	205.60352	168.95758	-599.24475	441.77176	857.11523	-519.73413	388.72540	816.16364	-626.27838	432.14777	741.51190	-647.83685	414.90131	605.34930	-632.69080	297.82922	570.30078	-665.56830	418.33051	559.06018	-607.50037	363.63412	533.73743	-718.24689	422.79053	496.14267	-675.83179	420.40460	215.65773	-579.19940	465.21490	165.30647	-541.22137	475.70209	159.00844	-484.30246	420.63815	167.63657	-524.76746	382.07593	176.58173	-646.58746	326.33063	208.95662	-596.52930	345.59756	170.03322	-735.55975	353.72900	161.94910	-443.77063	448.41992	146.58510	-450.41263	74.96741	143.37358	-806.00873	82.02959	141.42720	-799.97046	456.39667	144.72215	
307	6.120	-686.16040	264.55615	1826.99609	-619.18768	79.08680	1533.20752	-625.43555	444.85379	1523.85547	-520.74579	260.50513	1359.57227	-532.41418	133.09091	1039.94482	-504.79010	354.51846	1038.17358	-721.19781	256.35678	1062.36353	-619.44366	82.03160	835.34399	-530.27399	129.88055	800.31537	-637.87439	98.38900	720.28839	-659.39392	118.19166	601.20905	-634.12988	223.42717	557.82257	-687.95410	117.84316	539.49701	-609.34790	166.34766	524.13580	-697.31653	110.83241	488.26682	-690.37469	139.81914	213.50232	-616.39111	78.59140	167.43227	-571.14331	56.64666	164.26686	-494.36636	96.83964	160.63129	-536.07245	148.69522	162.56523	-640.27435	216.60548	220.24248	-598.11792	189.08337	169.84395	-725.69940	205.60262	168.95306	-599.51746	441.76810	857.12311	-519.98303	388.79453	816.18158	-626.48785	432.14075	741.50714	-648.02460	414.98444	605.41571	-632.88629	297.99963	570.25574	-665.72656	418.26251	559.00446	-607.60675	363.63281	533.77698	-718.37115	422.81332	496.09174	-675.87433	420.40308	215.64484	-579.19366	465.22769	165.30565	-541.22852	475.70737	159.00369	-484.26047	420.64197	167.71289	-524.77582	382.09833	176.59802	-646.58582	326.33981	208.95828	-596.51624	345.59546	170.03206	-735.56897	353.71509	161.94934	-443.78116	448.42010	146.56805	-450.40591	74.97249	143.36784	-806.02563	82.03966	141.42673	-799.96582	456.40732	144.72742	
